<?xml version="1.0" standalone="no"?>
<!DOCTYPE svg PUBLIC "-//W3C//DTD SVG 20010904//EN"
 "http://www.w3.org/TR/2001/REC-SVG-20010904/DTD/svg10.dtd">
<svg version="1.0" xmlns="http://www.w3.org/2000/svg"
 width="512.000000pt" height="512.000000pt" viewBox="0 0 512.000000 512.000000"
 preserveAspectRatio="xMidYMid meet">
<metadata>
Created by potrace 1.14, written by Peter Selinger 2001-2017
</metadata>
<g transform="translate(0.000000,512.000000) scale(0.100000,-0.100000)"
fill="#000000" stroke="none">
<path d="M400 4687 c-35 -13 -74 -40 -107 -73 -83 -82 -87 -104 -88 -496 l0
-328 2356 0 2355 0 -1 128 c-1 73 -7 144 -15 167 -27 83 -79 143 -164 188
l-41 22 -1424 3 c-1335 2 -1426 3 -1444 20 -11 9 -58 75 -105 146 -95 144
-145 199 -205 227 -39 17 -73 19 -552 18 -497 0 -511 -1 -565 -22z"/>
<path d="M284 3582 c-12 -2 -34 -17 -50 -33 l-29 -30 0 -1407 c-1 -774 3
-1426 7 -1450 17 -97 79 -177 171 -221 l62 -30 2107 -1 c2059 0 2109 0 2158
19 98 37 168 114 193 209 9 38 12 363 12 1465 l0 1417 -32 32 -33 32 -2272 1
c-1250 0 -2283 -1 -2294 -3z"/>
</g>
</svg>
